<svg xmlns="http://www.w3.org/2000/svg" xmlns:xlink="http://www.w3.org/1999/xlink" fill="none" version="1.1" width="16" height="16" viewBox="0 0 16 16"><g><path d="M14.885465859375,3.7605693L8.010238659375,0L1.344482419375,3.899648L2.3021147593749998,4.4378819C2.703592059375,4.6636529,3.192168459375,4.6594806,3.589992759375,4.4268718L8.036379859375,1.8274927L12.619293859375,4.3332257C13.010839859375,4.5472908,13.482635859375,4.5449729,13.872126859375,4.3270826L14.885465859375,3.7605693ZM2.579140059375,11.322702L2.579140059375,6.4852886C2.579140059375,6.0065722,2.319216759375,5.5654831,1.900540529375,5.3337531L0.999755859375,4.8349609L0.999755859375,12.234592L7.540739559375,16.000427L7.456545359375,14.798991C7.425804159375,14.361687,7.179645559375,13.96832,6.799625359375,13.749898L2.579140059375,11.322702ZM7.196044959375,8.3259001L3.948661759375,6.4348278C3.543654659375,6.1990547,3.403635059375,5.6717291,3.637380859375,5.2632098C3.871240859375,4.8545756,4.394033159375001,4.7133422,4.799040559374999,4.9492297L7.990587259375,6.8077865L11.186729859375,4.9501495C11.596000859375,4.7123108,12.124030859375,4.8548288,12.360286859375,5.2667265C12.596541859375,5.6786246,12.455087859375,6.2103114,12.045817859375,6.4481502L8.917356459375,8.2664499L8.917356459375,11.923382C8.917356459375,12.392748,8.530072659375,12.776753,8.056700659375,12.776753C7.583328259375,12.776753,7.196044959375,12.392748,7.196044959375,11.923382L7.196044959375,8.3259001ZM13.427205859375,11.31254L9.171574559375,13.820082C8.801316259375,14.038519,8.573974659375,14.437914,8.573974659375,14.869615L8.573974659375,16.000427L15.000203859375,12.226411L15.000203859375,4.8349609L14.105688859375,5.330698C13.687219859375,5.5625863,13.427205859375,6.0054388,13.427205859375,6.486115L13.427205859375,11.31254Z" fill-rule="evenodd" fill="#000000" fill-opacity="1"/></g></svg>